<svg width="1280" height="640" viewBox="0 0 1280 640" fill="none" xmlns="http://www.w3.org/2000/svg">
  <defs>
    <linearGradient id="bg" x1="80" y1="40" x2="1180" y2="620" gradientUnits="userSpaceOnUse">
      <stop stop-color="#040816"/>
      <stop offset="0.45" stop-color="#08152E"/>
      <stop offset="1" stop-color="#02040C"/>
    </linearGradient>
    <radialGradient id="glowA" cx="0" cy="0" r="1" gradientUnits="userSpaceOnUse" gradientTransform="translate(260 120) rotate(25) scale(340 220)">
      <stop stop-color="#37D6FF" stop-opacity="0.45"/>
      <stop offset="1" stop-color="#37D6FF" stop-opacity="0"/>
    </radialGradient>
    <radialGradient id="glowB" cx="0" cy="0" r="1" gradientUnits="userSpaceOnUse" gradientTransform="translate(1030 170) rotate(-12) scale(280 180)">
      <stop stop-color="#8D79FF" stop-opacity="0.42"/>
      <stop offset="1" stop-color="#8D79FF" stop-opacity="0"/>
    </radialGradient>
    <linearGradient id="line" x1="140" y1="0" x2="1110" y2="0" gradientUnits="userSpaceOnUse">
      <stop stop-color="#2EE6FF" stop-opacity="0"/>
      <stop offset="0.18" stop-color="#2EE6FF" stop-opacity="0.9"/>
      <stop offset="0.52" stop-color="#FFFFFF" stop-opacity="0.96"/>
      <stop offset="0.84" stop-color="#93B0FF" stop-opacity="0.78"/>
      <stop offset="1" stop-color="#93B0FF" stop-opacity="0"/>
    </linearGradient>
    <linearGradient id="cardStroke" x1="0" y1="0" x2="1" y2="1">
      <stop stop-color="#8EE7FF" stop-opacity="0.9"/>
      <stop offset="1" stop-color="#8A6CFF" stop-opacity="0.45"/>
    </linearGradient>
    <filter id="softBlur" x="-20%" y="-20%" width="140%" height="140%">
      <feGaussianBlur stdDeviation="18"/>
    </filter>
    <filter id="starGlow" x="-200%" y="-200%" width="400%" height="400%">
      <feGaussianBlur stdDeviation="2.4" result="blur"/>
      <feMerge>
        <feMergeNode in="blur"/>
        <feMergeNode in="SourceGraphic"/>
      </feMerge>
    </filter>
  </defs>

  <rect width="1280" height="640" rx="32" fill="url(#bg)"/>
  <rect x="1.5" y="1.5" width="1277" height="637" rx="30.5" stroke="rgba(255,255,255,0.08)"/>
  <rect x="24" y="24" width="1232" height="592" rx="28" stroke="rgba(255,255,255,0.05)"/>

  <ellipse cx="260" cy="120" rx="330" ry="210" fill="url(#glowA)"/>
  <ellipse cx="1025" cy="170" rx="300" ry="190" fill="url(#glowB)"/>

  <g fill="#FFFFFF" fill-opacity="0.82">
    <circle cx="134" cy="88" r="1.5"/>
    <circle cx="216" cy="54" r="1.1"/>
    <circle cx="313" cy="86" r="1.8"/>
    <circle cx="428" cy="61" r="1.3"/>
    <circle cx="1012" cy="72" r="1.4"/>
    <circle cx="1114" cy="112" r="1.8"/>
    <circle cx="1186" cy="84" r="1.2"/>
    <circle cx="964" cy="140" r="1.2"/>
    <circle cx="1082" cy="246" r="1.4"/>
    <circle cx="1162" cy="201" r="1.1"/>
    <circle cx="180" cy="248" r="1.3"/>
    <circle cx="250" cy="212" r="1.6"/>
    <circle cx="344" cy="258" r="1.1"/>
  </g>

  <g filter="url(#starGlow)">
    <circle cx="978" cy="94" r="2.4" fill="#9FEAFF"/>
    <circle cx="357" cy="73" r="2.2" fill="#D3E2FF"/>
    <circle cx="1185" cy="164" r="2.1" fill="#E8F3FF"/>
  </g>

  <path d="M130 438C210 390 279 365 344 360C420 354 474 399 553 400C650 401 734 316 836 313C929 310 1010 374 1114 428" stroke="url(#line)" stroke-width="3" stroke-linecap="round"/>
  <path d="M143 463C232 432 315 420 389 424C480 430 553 478 651 478C759 478 829 412 938 410C1011 409 1074 433 1132 456" stroke="rgba(137,175,255,0.28)" stroke-width="1.5" stroke-linecap="round"/>

  <g>
    <circle cx="188" cy="403" r="4.5" fill="#4BE0FF"/>
    <circle cx="228" cy="389" r="4.5" fill="#56E4FF"/>
    <circle cx="267" cy="379" r="4.5" fill="#6BE8FF"/>
    <circle cx="306" cy="369" r="4.5" fill="#95F0FF"/>
    <circle cx="346" cy="360" r="4.5" fill="#BEF7FF"/>
    <circle cx="391" cy="365" r="4.5" fill="#FFFFFF"/>
    <circle cx="431" cy="380" r="4.5" fill="#D9E4FF"/>
    <circle cx="475" cy="395" r="4.5" fill="#B9CBFF"/>
    <circle cx="526" cy="399" r="4.5" fill="#A5BFFF"/>
    <circle cx="578" cy="394" r="4.5" fill="#8CB6FF"/>
    <circle cx="629" cy="372" r="4.5" fill="#82B6FF"/>
    <circle cx="681" cy="345" r="4.5" fill="#79B4FF"/>
    <circle cx="736" cy="324" r="4.5" fill="#72B1FF"/>
    <circle cx="793" cy="315" r="4.5" fill="#89B0FF"/>
    <circle cx="851" cy="317" r="4.5" fill="#A0A9FF"/>
    <circle cx="904" cy="331" r="4.5" fill="#B39FFF"/>
    <circle cx="958" cy="356" r="4.5" fill="#C98DFF"/>
    <circle cx="1014" cy="385" r="4.5" fill="#D57FFF"/>
    <circle cx="1070" cy="412" r="4.5" fill="#D96FFF"/>
  </g>

  <g opacity="0.76">
    <rect x="760" y="458" width="112" height="82" rx="18" fill="rgba(255,255,255,0.05)" stroke="url(#cardStroke)"/>
    <rect x="886" y="458" width="112" height="82" rx="18" fill="rgba(255,255,255,0.05)" stroke="url(#cardStroke)"/>
    <rect x="1012" y="458" width="112" height="82" rx="18" fill="rgba(255,255,255,0.05)" stroke="url(#cardStroke)"/>
    <text x="816" y="494" text-anchor="middle" font-family="Segoe UI, Arial, sans-serif" font-size="28" font-weight="700" fill="#FFFFFF">1400</text>
    <text x="816" y="519" text-anchor="middle" font-family="Segoe UI, Arial, sans-serif" font-size="12" letter-spacing="2.8" fill="#B9C7EA">ACTIVE DRONES</text>
    <text x="942" y="494" text-anchor="middle" font-family="Segoe UI, Arial, sans-serif" font-size="28" font-weight="700" fill="#FFFFFF">10</text>
    <text x="942" y="519" text-anchor="middle" font-family="Segoe UI, Arial, sans-serif" font-size="12" letter-spacing="2.8" fill="#B9C7EA">SHOW STEPS</text>
    <text x="1068" y="494" text-anchor="middle" font-family="Segoe UI, Arial, sans-serif" font-size="28" font-weight="700" fill="#FFFFFF">3D</text>
    <text x="1068" y="519" text-anchor="middle" font-family="Segoe UI, Arial, sans-serif" font-size="12" letter-spacing="2.8" fill="#B9C7EA">INTERACTIVE VIEW</text>
  </g>

  <rect x="92" y="82" width="160" height="34" rx="17" fill="rgba(106,201,255,0.10)" stroke="rgba(132,213,255,0.35)"/>
  <text x="172" y="104" text-anchor="middle" font-family="Segoe UI, Arial, sans-serif" font-size="13" letter-spacing="2.8" fill="#B6EFFF">AGENCY FOR DEFENSE DEVELOPMENT</text>

  <text x="92" y="204" font-family="Segoe UI, Arial, sans-serif" font-size="76" font-weight="800" fill="#FFFFFF">ADD Drone Show</text>
  <text x="92" y="270" font-family="Segoe UI, Arial, sans-serif" font-size="34" font-weight="600" fill="#C9D8FF">Night Formation Simulation for the Changjogwan Showcase</text>
  <text x="92" y="320" font-family="Segoe UI, Arial, sans-serif" font-size="22" font-weight="400" fill="#A8B6D9">K2, KF-21, CUAV, SAR, KDDX and custom SVG/text formations rendered as a glowing drone swarm.</text>

  <g>
    <rect x="92" y="366" width="214" height="46" rx="23" fill="rgba(255,255,255,0.06)" stroke="rgba(255,255,255,0.12)"/>
    <text x="199" y="394" text-anchor="middle" font-family="Segoe UI, Arial, sans-serif" font-size="15" font-weight="700" letter-spacing="1.2" fill="#FFFFFF">NEXT.JS 16 + THREE FIBER</text>
    <rect x="320" y="366" width="178" height="46" rx="23" fill="rgba(78,224,255,0.12)" stroke="rgba(78,224,255,0.28)"/>
    <text x="409" y="394" text-anchor="middle" font-family="Segoe UI, Arial, sans-serif" font-size="15" font-weight="700" letter-spacing="1.2" fill="#CFF9FF">POINT CLOUD SHOW</text>
  </g>

  <g transform="translate(1006 120)">
    <circle cx="0" cy="0" r="82" fill="rgba(255,255,255,0.04)" stroke="rgba(255,255,255,0.10)"/>
    <circle cx="0" cy="0" r="64" fill="rgba(255,255,255,0.02)" stroke="rgba(120,212,255,0.16)"/>
    <g fill="#FFD058">
      <rect x="-4" y="-70" width="8" height="18" rx="2"/>
      <rect x="-4" y="52" width="8" height="18" rx="2"/>
      <rect x="-70" y="-4" width="18" height="8" rx="2"/>
      <rect x="52" y="-4" width="18" height="8" rx="2"/>
      <rect x="-50" y="-50" width="8" height="16" rx="2" transform="rotate(-45 -46 -42)"/>
      <rect x="42" y="-50" width="8" height="16" rx="2" transform="rotate(45 46 -42)"/>
      <rect x="-50" y="34" width="8" height="16" rx="2" transform="rotate(45 -46 42)"/>
      <rect x="42" y="34" width="8" height="16" rx="2" transform="rotate(-45 46 42)"/>
      <path d="M0 -54L-34 34C-13 20 13 20 34 34L0 -54Z"/>
    </g>
  </g>

  <g opacity="0.7">
    <path d="M1064 312L1099 294L1134 312L1099 330L1064 312Z" fill="rgba(115,186,255,0.26)" stroke="rgba(166,217,255,0.42)"/>
    <path d="M1014 356L1049 338L1084 356L1049 374L1014 356Z" fill="rgba(135,165,255,0.24)" stroke="rgba(181,199,255,0.4)"/>
    <path d="M1114 356L1149 338L1184 356L1149 374L1114 356Z" fill="rgba(184,126,255,0.22)" stroke="rgba(217,186,255,0.4)"/>
  </g>
</svg>
